<svg width="112" height="77" viewBox="0 0 112 77" fill="none" xmlns="http://www.w3.org/2000/svg">
<path d="M44.252 58.504V76H36.908V58.504H0.512V51.916L37.232 0.939994H44.252V51.808H56.132V58.504H44.252ZM36.908 12.064H36.584C36.152 13 35.432 14.224 34.424 15.736C33.488 17.176 32.624 18.472 31.832 19.624L8.828 51.808H36.908V12.064Z" fill="#2C3C4D"/>
<path d="M88.1837 64.516C88.1837 62.668 88.4697 60.996 89.0417 59.5C89.6137 57.96 90.4057 56.662 91.4177 55.606C92.4737 54.55 93.7277 53.736 95.1797 53.164C96.6317 52.592 98.2377 52.306 99.9977 52.306C101.802 52.306 103.43 52.614 104.882 53.23C106.334 53.802 107.566 54.616 108.578 55.672C109.634 56.728 110.426 58.004 110.954 59.5C111.526 60.996 111.812 62.668 111.812 64.516C111.812 66.32 111.526 67.992 110.954 69.532C110.426 71.028 109.634 72.326 108.578 73.426C107.566 74.482 106.334 75.318 104.882 75.934C103.43 76.506 101.802 76.792 99.9977 76.792C98.1937 76.792 96.5657 76.506 95.1137 75.934C93.6617 75.318 92.4297 74.482 91.4177 73.426C90.4057 72.326 89.6137 71.028 89.0417 69.532C88.4697 68.036 88.1837 66.364 88.1837 64.516ZM94.2557 64.516C94.2557 66.76 94.7617 68.498 95.7737 69.73C96.8297 70.918 98.2377 71.512 99.9977 71.512C101.802 71.512 103.188 70.896 104.156 69.664C105.124 68.388 105.608 66.672 105.608 64.516C105.608 62.404 105.124 60.732 104.156 59.5C103.232 58.224 101.846 57.586 99.9977 57.586C98.1497 57.586 96.7197 58.224 95.7077 59.5C94.7397 60.732 94.2557 62.404 94.2557 64.516ZM60.7277 41.68C60.7277 39.832 61.0137 38.16 61.5857 36.664C62.1577 35.168 62.9497 33.892 63.9617 32.836C65.0177 31.78 66.2717 30.966 67.7237 30.394C69.1757 29.822 70.8037 29.536 72.6077 29.536C74.4117 29.536 76.0397 29.844 77.4917 30.46C78.9437 31.032 80.1757 31.846 81.1877 32.902C82.2437 33.958 83.0357 35.234 83.5637 36.73C84.1357 38.226 84.4217 39.876 84.4217 41.68C84.4217 43.528 84.1357 45.2 83.5637 46.696C83.0357 48.192 82.2437 49.49 81.1877 50.59C80.1757 51.646 78.9437 52.482 77.4917 53.098C76.0397 53.67 74.4117 53.956 72.6077 53.956C70.8037 53.956 69.1757 53.67 67.7237 53.098C66.2717 52.482 65.0177 51.646 63.9617 50.59C62.9497 49.49 62.1577 48.192 61.5857 46.696C61.0137 45.2 60.7277 43.528 60.7277 41.68ZM66.8657 41.68C66.8657 43.924 67.3717 45.662 68.3837 46.894C69.4397 48.082 70.8477 48.676 72.6077 48.676C74.4117 48.676 75.7977 48.06 76.7657 46.828C77.7337 45.552 78.2177 43.836 78.2177 41.68C78.2177 39.568 77.7337 37.896 76.7657 36.664C75.8417 35.388 74.4557 34.75 72.6077 34.75C70.7597 34.75 69.3297 35.388 68.3177 36.664C67.3497 37.896 66.8657 39.568 66.8657 41.68ZM106.73 30.13L73.0037 76H65.6117L99.3377 30.13H106.73Z" fill="#E14E3D"/>
</svg>
