<svg width="83" height="83" viewBox="0 0 83 83" fill="none" xmlns="http://www.w3.org/2000/svg">
<g clip-path="url(#clip0_281_3591)">
<path d="M62.36 70.5101C58.0159 73.6491 53.0288 75.7837 47.7589 76.7598C42.4891 77.7359 37.0683 77.5289 31.8882 76.154C26.7081 74.7791 21.8981 72.2705 17.8059 68.8095C13.7138 65.3486 10.4417 61.0217 8.22611 56.1416C6.01051 51.2616 4.90677 45.9503 4.99466 40.5915C5.08256 35.2328 6.3599 29.9604 8.73435 25.1557C11.1088 20.3509 14.5211 16.1337 18.7245 12.8088C22.928 9.48391 27.8175 7.13439 33.04 5.93008V0.830078C26.9641 2.04877 21.2415 4.62302 16.2989 8.36096C11.3563 12.0989 7.32106 16.9041 4.49387 22.4185C1.66668 27.933 0.120504 34.0143 -0.029445 40.2094C-0.179394 46.4045 1.07076 52.5536 3.62784 58.1983C6.18493 63.8431 9.983 68.8379 14.739 72.8106C19.495 76.7833 25.0862 79.6314 31.096 81.1426C37.1059 82.6538 43.3792 82.7892 49.4486 81.5387C55.5181 80.2881 61.227 77.6839 66.1499 73.9201L62.36 70.5101Z" fill="#1A3B50"/>
<path d="M70.1202 70.6L38.6802 42.3V8.824e-07H41.1802C49.1438 -0.00164716 56.937 2.30526 63.6166 6.64142C70.2961 10.9776 75.5755 17.157 78.8155 24.4317C82.0555 31.7064 83.1172 39.7643 81.8721 47.6299C80.627 55.4956 77.1286 62.8316 71.8002 68.75L70.1202 70.6ZM43.6802 40.07L69.6802 63.49C73.7274 58.3138 76.2895 52.1337 77.0917 45.6122C77.894 39.0908 76.9061 32.474 74.2341 26.4713C71.5621 20.4685 67.3067 15.3061 61.9241 11.5377C56.5416 7.76932 50.2349 5.53696 43.6802 5.07999V40.07Z" fill="#E14E3D"/>
</g>
<defs>
<clipPath id="clip0_281_3591">
<rect width="82.38" height="82.38" fill="white"/>
</clipPath>
</defs>
</svg>
