<svg width="139" height="88" viewBox="0 0 139 88" fill="none" xmlns="http://www.w3.org/2000/svg">
<g clip-path="url(#clip0_281_3586)">
<path d="M3.42 46.76L0 43.11L45.97 0L91.43 43.12L87.99 46.75L45.95 6.87L3.42 46.76Z" fill="#1A3B50"/>
<path d="M80.71 45.84V82.94H11.21V45.45L6.20996 50.1399V87.94H85.71V50.59L80.71 45.84Z" fill="#1A3B50"/>
<path d="M114.28 41.41L133.53 59.5V82.9301H95.0298V59.5L114.28 41.41ZM114.28 34.55L90.0298 57.34V87.9301H138.53V57.34L114.28 34.55Z" fill="#1A3B50"/>
<path d="M46.3499 69.2501L28.3999 51.3101L31.9399 47.7701L45.9899 61.8301L63.2799 40.8501L67.1399 44.0301L46.3499 69.2501Z" fill="#E14E3D"/>
</g>
<defs>
<clipPath id="clip0_281_3586">
<rect width="138.52" height="87.94" fill="white"/>
</clipPath>
</defs>
</svg>
