<svg width="150" height="118" viewBox="0 0 150 118" fill="none" xmlns="http://www.w3.org/2000/svg">
<g clip-path="url(#clip0_281_3687)">
<path d="M30.4026 65.4654C29.0766 65.4655 27.7804 65.0728 26.6779 64.3372C25.5754 63.6015 24.7161 62.5559 24.2086 61.3325C23.7012 60.1091 23.5684 58.7629 23.827 57.4642C24.0857 56.1654 24.7241 54.9724 25.6617 54.0361C26.5993 53.0997 27.7938 52.462 29.0943 52.2036C30.3947 51.9452 31.7427 52.0778 32.9677 52.5845C34.1928 53.0912 35.2398 53.9493 35.9765 55.0503C36.7132 56.1513 37.1064 57.4458 37.1065 58.77C37.1045 60.545 36.3976 62.2469 35.1408 63.5021C33.884 64.7573 32.18 65.4634 30.4026 65.4654ZM30.4026 54.5856C29.5738 54.5855 28.7637 54.8309 28.0746 55.2907C27.3855 55.7505 26.8484 56.4041 26.5312 57.1687C26.214 57.9333 26.131 58.7747 26.2927 59.5865C26.4544 60.3983 26.8535 61.1439 27.4395 61.7291C28.0255 62.3144 28.7721 62.7129 29.585 62.8744C30.3978 63.0358 31.2403 62.953 32.006 62.6362C32.7716 62.3195 33.426 61.7831 33.8864 61.0949C34.3468 60.4067 34.5926 59.5976 34.5925 58.77C34.5912 57.6606 34.1494 56.597 33.3639 55.8126C32.5784 55.0281 31.5134 54.5869 30.4026 54.5856ZM66.984 39.2365C65.6581 39.2365 64.3619 38.8439 63.2595 38.1082C62.157 37.3725 61.2978 36.3269 60.7904 35.1036C60.283 33.8802 60.1502 32.534 60.4089 31.2353C60.6676 29.9366 61.306 28.7437 62.2436 27.8074C63.1812 26.8711 64.3757 26.2334 65.6761 25.9751C66.9765 25.7168 68.3245 25.8493 69.5494 26.3561C70.7744 26.8628 71.8214 27.7209 72.5581 28.8219C73.2947 29.9229 73.6879 31.2173 73.6879 32.5415C73.6859 34.3165 72.9789 36.0182 71.7221 37.2733C70.4653 38.5285 68.7613 39.2345 66.984 39.2365ZM66.984 28.3571C66.1553 28.3571 65.3452 28.6025 64.6562 29.0623C63.9671 29.5221 63.4301 30.1756 63.113 30.9402C62.7958 31.7048 62.7129 32.5461 62.8745 33.3578C63.0362 34.1695 63.4353 34.9151 64.0212 35.5003C64.6072 36.0855 65.3538 36.484 66.1666 36.6455C66.9793 36.8069 67.8218 36.7241 68.5874 36.4074C69.353 36.0906 70.0074 35.5543 70.4678 34.8662C70.9282 34.1781 71.1739 33.3691 71.1739 32.5415C71.1726 31.4321 70.7308 30.3685 69.9453 29.5841C69.1598 28.7997 68.0948 28.3584 66.984 28.3571ZM104.693 50.1159C103.367 50.1159 102.071 49.7233 100.969 48.9876C99.8661 48.252 99.0069 47.2063 98.4995 45.983C97.9921 44.7596 97.8593 43.4135 98.118 42.1148C98.3766 40.8161 99.0151 39.6231 99.9527 38.6868C100.89 37.7505 102.085 37.1128 103.385 36.8545C104.686 36.5962 106.034 36.7288 107.259 37.2355C108.484 37.7422 109.531 38.6004 110.267 39.7013C111.004 40.8023 111.397 42.0968 111.397 43.4209C111.395 45.1959 110.688 46.8976 109.431 48.1528C108.174 49.4079 106.47 50.1139 104.693 50.1159ZM104.693 39.2365C103.864 39.2365 103.054 39.4819 102.365 39.9417C101.676 40.4015 101.139 41.055 100.822 41.8196C100.505 42.5842 100.422 43.4255 100.584 44.2372C100.745 45.0489 101.144 45.7945 101.73 46.3797C102.316 46.9649 103.063 47.3634 103.876 47.5249C104.688 47.6864 105.531 47.6035 106.296 47.2868C107.062 46.9701 107.716 46.4338 108.177 45.7456C108.637 45.0575 108.883 44.2485 108.883 43.4209C108.882 42.3115 108.44 41.248 107.654 40.4635C106.869 39.6791 105.804 39.2378 104.693 39.2365ZM60.055 38.4429L58.5713 36.4161L36.7836 52.3168L38.2673 54.3436L60.055 38.4429ZM95.7125 39.576L76.4388 33.7179L75.7072 36.1198L94.9809 41.978L95.7125 39.576Z" fill="#E14E3D"/>
<path d="M69.4978 55.9741H61.118V66.0162H69.4978V55.9741ZM66.9839 63.5056H63.6319V58.4847H66.9839V63.5056ZM124.805 0.460114H10.0006C7.44565 0.462947 4.99613 1.47782 3.18948 3.28208C1.38283 5.08634 0.366606 7.53262 0.36377 10.0842V89.4489C0.366675 92.0004 1.38292 94.4467 3.18955 96.2509C4.99619 98.0552 7.44568 99.0701 10.0006 99.073H54.9435V115.678H40.4583V118.189H54.9435V118.189H57.4575V118.189H76.6203V118.189H79.1343V118.189H93.2516V115.678H79.1343V99.073H124.805C127.36 99.07 129.809 98.0551 131.616 96.2508C133.422 94.4466 134.439 92.0004 134.442 89.4488V10.0842C134.439 7.53264 133.422 5.0864 131.616 3.28216C129.809 1.47791 127.36 0.463015 124.805 0.460114ZM31.7884 96.5623H28.4364V89.4488H31.7884V96.5623ZM37.7648 96.5623H34.3023V86.9382H25.9224V96.5623H22.681V82.954L30.1124 75.5325L37.7648 83.1747V96.5623ZM76.6203 115.678H57.4575V53.045H76.6203V115.678ZM113.073 71.0375H96.7321V63.924H113.073V71.0375ZM113.073 96.5623H96.7321V91.1226H113.073V96.5623ZM113.073 88.612H96.7321V81.9169H113.073V88.612ZM96.7321 79.4063V73.5481H113.073V79.4063H96.7321ZM131.928 89.4488C131.925 91.3348 131.174 93.1428 129.839 94.4763C128.504 95.8099 126.693 96.5601 124.805 96.5623H115.587V61.4134H94.2181V96.5623H79.1343V50.5344H54.9435V96.5623H40.2787V85.6853L41.7935 87.1981L43.5709 85.423L37.6543 79.5142V72.7113H35.1403V77.0035L30.1124 71.9823L16.6538 85.423L18.4313 87.1981L20.167 85.4647V96.5623H10.0006C8.1122 96.5601 6.30172 95.81 4.96639 94.4764C3.63106 93.1429 2.87991 91.3348 2.87774 89.4488V16.6407H131.928V89.4488ZM131.928 14.1301H2.87774V10.0842C2.87985 8.19826 3.63097 6.39015 4.96632 5.05657C6.30166 3.72299 8.11218 2.97286 10.0006 2.97075H124.805C126.693 2.97292 128.504 3.72308 129.839 5.05664C131.174 6.39021 131.925 8.19828 131.928 10.0842V14.1301ZM69.4978 69.7822H61.118V79.8247H69.4978V69.7822ZM66.9839 77.3141H63.6319V72.2928H66.9839V77.3141ZM69.4978 83.5907H61.118V93.6332H69.4978V83.5907ZM66.9839 91.1226H63.6319V86.1013H66.9839V91.1226ZM61.4081 107.309H69.788V97.2668H61.4081V107.309ZM63.922 99.7774H67.274V104.799H63.922V99.7774Z" fill="#2C3C4D"/>
</g>
<defs>
<clipPath id="clip0_281_3687">
<rect width="150" height="118" fill="white"/>
</clipPath>
</defs>
</svg>
