<svg width="150" height="100" viewBox="0 0 150 100" fill="none" xmlns="http://www.w3.org/2000/svg">
<path d="M124.543 99.9966H9.73892C7.18396 99.9937 4.73447 98.9702 2.92783 97.1507C1.1212 95.3311 0.104956 92.8642 0.102051 90.2909V10.2533C0.104885 7.68011 1.12111 5.2131 2.92776 3.39355C4.73441 1.574 7.18394 0.550523 9.73892 0.547668H124.543C127.098 0.550595 129.547 1.57409 131.354 3.39363C133.161 5.21316 134.177 7.68014 134.18 10.2533V43.0281H131.666V10.2533C131.664 8.35142 130.913 6.52802 129.577 5.18315C128.242 3.83828 126.431 3.08177 124.543 3.07958H9.73892C7.85046 3.08171 6.03994 3.83819 4.7046 5.18307C3.36925 6.52795 2.61812 8.35139 2.61602 10.2533V90.2909C2.6182 92.1929 3.36934 94.0163 4.70467 95.3611C6.04001 96.706 7.85048 97.4625 9.73892 97.4647H124.543C126.431 97.4624 128.242 96.7059 129.577 95.3611C130.912 94.0162 131.664 92.1928 131.666 90.2909V75.5214H134.18V90.2909C134.177 92.8641 133.161 95.3311 131.354 97.1506C129.547 98.9701 127.098 99.9936 124.543 99.9966ZM79.7106 24.4607H21.0518V26.9927H79.7106V24.4607ZM69.6551 34.2509H15.6048V36.7828H69.6551V34.2509ZM54.5713 44.041H15.6048V46.573H54.5713V44.041ZM62.9512 53.8312H15.6048V56.3631H62.9512V53.8312ZM62.9512 63.6209H15.6048V66.1528H62.9512V63.6209ZM42.8395 73.4115H15.6048V75.9434H42.8395V73.4115Z" fill="#2C3C4D"/>
<path d="M18.1185 29.5246H15.6045V21.5068H18.1185V29.5246ZM48.2861 70.4576H45.7721V78.4753H48.2861V70.4576ZM145.01 71.2747C143.349 72.9727 141.37 74.3222 139.187 75.2451C137.005 76.1681 134.663 76.6462 132.296 76.6517H84.8355C81.5265 76.6637 78.3442 75.3705 75.97 73.049C73.5958 70.7276 72.2182 67.5623 72.1322 64.2307C72.1299 64.0516 72.1306 63.8719 72.134 63.6916C72.1856 61.2942 72.8044 58.9437 73.9389 56.8354C75.0734 54.7271 76.691 52.9218 78.6572 51.5694C80.6235 50.217 82.8818 49.3566 85.2444 49.0595C87.6071 48.7625 90.0061 49.0374 92.2421 49.8615C92.3953 45.1391 94.1236 40.6065 97.1483 36.9947C100.173 33.383 104.318 30.9028 108.913 29.9544C113.509 29.0059 118.288 29.6445 122.48 31.767C126.671 33.8896 130.03 37.3723 132.015 41.6534C132.205 41.647 132.395 41.6438 132.583 41.6438C137.132 41.644 141.499 43.4399 144.748 46.646C147.997 49.8521 149.868 54.2131 149.961 58.7931C150.009 61.1016 149.595 63.3962 148.744 65.5405C147.894 67.6847 146.624 69.6348 145.01 71.2747ZM146.785 58.8576C146.69 55.1207 145.155 51.5677 142.504 48.9516C139.853 46.3356 136.294 44.8621 132.583 44.8437C132.115 44.8437 131.636 44.8678 131.16 44.9155C130.818 44.9496 130.474 44.8709 130.179 44.6912C129.885 44.5115 129.657 44.2405 129.529 43.9189C128 40.0751 125.19 36.8874 121.581 34.9033C117.972 32.9193 113.79 32.2628 109.753 33.0466C105.716 33.8304 102.076 36.0056 99.4583 39.1985C96.8405 42.3915 95.4084 46.4028 95.408 50.5436C95.408 51.122 95.4361 51.7015 95.4916 52.2654C95.5205 52.5597 95.4679 52.8564 95.3395 53.1224C95.211 53.3885 95.0119 53.6134 94.7642 53.7724C94.5165 53.9313 94.2298 54.0179 93.9361 54.0226C93.6425 54.0273 93.3533 53.9499 93.1006 53.799C91.2814 52.713 89.2052 52.141 87.0904 52.1433C86.9596 52.1433 86.8286 52.1455 86.6975 52.1499C83.6851 52.2498 80.8253 53.5091 78.707 55.6686C76.5887 57.828 75.3731 60.7232 75.3103 63.7581C75.3075 63.9011 75.307 64.0435 75.309 64.1854C75.3799 66.6774 76.4166 69.0424 78.1971 70.7743C79.9775 72.5062 82.3604 73.4674 84.8357 73.4522H132.296C134.241 73.4476 136.165 73.0549 137.958 72.2967C139.751 71.5385 141.376 70.4299 142.741 69.035C144.058 67.6982 145.095 66.1083 145.789 64.36C146.484 62.6116 146.822 60.7403 146.785 58.8576H146.785ZM133.49 57.4784C133.49 57.7095 133.441 57.9379 133.345 58.1478C133.249 58.3577 133.109 58.5442 132.934 58.6943L125.136 65.4095C124.815 65.6846 124.4 65.8205 123.98 65.7873C123.56 65.754 123.171 65.5543 122.897 65.2321C122.624 64.9098 122.488 64.4914 122.521 64.0687C122.554 63.646 122.751 63.2536 123.071 62.9777L129.458 57.4785L123.071 51.9794C122.751 51.7035 122.554 51.3111 122.521 50.8884C122.488 50.4657 122.624 50.0472 122.897 49.725C123.171 49.4028 123.56 49.2031 123.98 49.1698C124.4 49.1366 124.815 49.2724 125.136 49.5476L132.934 56.2629C133.109 56.413 133.249 56.5994 133.345 56.8092C133.441 57.0191 133.49 57.2474 133.49 57.4784H133.49ZM108.329 65.2342C108.055 65.5566 107.665 65.7563 107.245 65.7893C106.825 65.8224 106.409 65.6861 106.089 65.4104L98.2904 58.6953C98.116 58.545 97.976 58.3586 97.88 58.1487C97.784 57.9388 97.7343 57.7104 97.7343 57.4793C97.7343 57.2482 97.784 57.0198 97.88 56.8099C97.976 56.6 98.116 56.4136 98.2904 56.2634L106.089 49.5481C106.409 49.2732 106.825 49.1376 107.244 49.171C107.664 49.2044 108.053 49.404 108.327 49.7262C108.6 50.0483 108.735 50.4665 108.703 50.8891C108.671 51.3117 108.473 51.704 108.154 51.98L101.767 57.4792L108.154 62.9783C108.312 63.1149 108.443 63.2815 108.537 63.4688C108.632 63.6561 108.689 63.8603 108.705 64.0698C108.721 64.2792 108.696 64.4899 108.632 64.6897C108.567 64.8895 108.464 65.0745 108.329 65.2342H108.329ZM120.054 48.9053L120.029 48.9827C119.898 49.3853 119.613 49.7191 119.238 49.9107C118.863 50.1023 118.427 50.1361 118.027 50.0047C117.627 49.8733 117.295 49.5874 117.104 49.2097C116.913 48.8321 116.879 48.3935 117.009 47.9904L117.034 47.9131C117.098 47.7133 117.201 47.5284 117.337 47.3688C117.473 47.2092 117.638 47.0781 117.824 46.9829C118.01 46.8878 118.213 46.8304 118.421 46.8142C118.629 46.798 118.838 46.8231 119.036 46.8883C119.235 46.9534 119.418 47.0573 119.577 47.1939C119.735 47.3305 119.865 47.4973 119.96 47.6846C120.054 47.8719 120.111 48.0761 120.128 48.2855C120.144 48.495 120.119 48.7056 120.054 48.9053ZM118.061 55.0716L114.191 67.0437C114.127 67.2435 114.024 67.4285 113.888 67.5882C113.753 67.7479 113.587 67.8791 113.401 67.9744C113.215 68.0697 113.013 68.1271 112.805 68.1435C112.597 68.1599 112.388 68.1348 112.189 68.0698C111.991 68.0048 111.807 67.9011 111.649 67.7645C111.49 67.628 111.36 67.4614 111.265 67.2741C111.171 67.0869 111.114 66.8827 111.097 66.6733C111.081 66.4638 111.106 66.2532 111.17 66.0534L115.04 54.0813C115.17 53.6779 115.455 53.3431 115.83 53.1507C116.206 52.9582 116.642 52.9239 117.042 53.0552C117.443 53.1865 117.775 53.4727 117.966 53.8509C118.157 54.229 118.191 54.6681 118.061 55.0716Z" fill="#E14E3D"/>
</svg>
