<svg width="272" height="52" viewBox="0 0 272 52" fill="none" xmlns="http://www.w3.org/2000/svg">
<path d="M83.601 35.8529L76.2625 28.5025H69.8633V24.3007H82.2578C82.8259 24.3194 83.3895 24.1923 83.8958 23.9313C84.1137 23.819 84.2943 23.6449 84.4156 23.4304C84.5368 23.2158 84.5934 22.9702 84.5783 22.7237C84.5949 22.474 84.5392 22.2248 84.4181 22.0064C84.2969 21.7881 84.1154 21.6101 83.8958 21.494C83.3895 21.2331 82.8259 21.106 82.2578 21.1246H69.8633V16.9228H83.1096C83.9525 16.9169 84.7917 17.0377 85.5994 17.2812C86.3236 17.4982 87.0013 17.8498 87.5978 18.3179C88.1686 18.778 88.639 19.3525 88.9792 20.0052C89.35 20.7238 89.5868 21.5051 89.6781 22.3101V23.1152C89.6445 23.8983 89.4408 24.6644 89.0813 25.3591C88.7217 26.0538 88.2153 26.6601 87.5978 27.135C86.3747 28.0467 84.713 28.5025 82.6127 28.5025L89.76 35.8529H83.601Z" fill="#0D3249"/>
<path d="M92.5771 21.1244V16.9226H110.475V21.1244H92.5771ZM92.5771 24.3005H110.475V28.5023H97.6332V31.6509H110.497V35.8527H92.5771V24.3005Z" fill="#0D3249"/>
<path d="M122.521 21.5105L117.705 35.8473H112.692L119.124 16.9172H125.911L132.371 35.8473H127.336L122.521 21.5105ZM120.02 31.651H125.054V35.8528H120.02V31.651Z" fill="#0D3249"/>
<path d="M134.588 16.9226H139.628V31.6509H152.432V35.8527H134.588V16.9226Z" fill="#0D3249"/>
<path d="M200.302 23.1149C200.286 22.211 200.45 21.313 200.782 20.4736C201.084 19.7367 201.542 19.0759 202.125 18.5382C202.724 17.9984 203.427 17.5892 204.189 17.3361C205.045 17.0517 205.942 16.912 206.843 16.9225H213.553C214.454 16.912 215.351 17.0517 216.207 17.3361C216.973 17.5916 217.681 18.0004 218.287 18.5382C218.877 19.0723 219.34 19.7339 219.641 20.4736C219.974 21.313 220.137 22.211 220.122 23.1149V29.6657C220.136 30.5731 219.972 31.4743 219.641 32.318C219.341 33.0618 218.878 33.7273 218.287 34.2645C217.682 34.8007 216.974 35.206 216.207 35.4555C215.349 35.7287 214.453 35.8627 213.553 35.8526H206.843C205.943 35.8627 205.047 35.7287 204.189 35.4555C203.426 35.2085 202.723 34.8028 202.125 34.2645C201.541 33.7237 201.082 33.0589 200.782 32.318C200.451 31.4743 200.288 30.5731 200.302 29.6657V23.1149ZM215.082 29.2466V23.5285C215.106 23.2021 215.064 22.8742 214.958 22.5651C214.852 22.2559 214.684 21.9719 214.465 21.7308C214.226 21.5165 213.947 21.3525 213.644 21.2483C213.341 21.1442 213.021 21.102 212.702 21.1243H207.722C207.403 21.102 207.082 21.1442 206.78 21.2483C206.477 21.3525 206.198 21.5165 205.958 21.7308C205.739 21.9719 205.571 22.2559 205.465 22.5651C205.359 22.8742 205.317 23.2021 205.341 23.5285V29.2466C205.316 29.573 205.358 29.9011 205.464 30.2103C205.57 30.5196 205.739 30.8035 205.958 31.0442C206.198 31.2586 206.477 31.4226 206.78 31.5267C207.082 31.6309 207.403 31.6731 207.722 31.6508H212.702C213.021 31.6731 213.341 31.6309 213.644 31.5267C213.947 31.4226 214.226 31.2586 214.465 31.0442C214.685 30.8035 214.853 30.5196 214.959 30.2103C215.065 29.9011 215.107 29.573 215.082 29.2466Z" fill="#E14E3D"/>
<path d="M154.873 24.3005H167.268C167.836 24.3198 168.399 24.1927 168.906 23.931C169.123 23.8187 169.304 23.6446 169.425 23.4301C169.547 23.2156 169.603 22.97 169.588 22.7234C169.605 22.4737 169.549 22.2245 169.428 22.0062C169.307 21.7878 169.125 21.6098 168.906 21.4938C168.399 21.2321 167.836 21.105 167.268 21.1243H154.873V16.9226H168.119C168.962 16.9166 169.801 17.0374 170.609 17.281C171.333 17.498 172.011 17.8495 172.608 18.3176C173.178 18.7777 173.649 19.3522 173.989 20.0049C174.36 20.7235 174.597 21.5048 174.688 22.3099V23.1149C174.613 23.9197 174.385 24.7022 174.016 25.4198C173.674 26.0791 173.198 26.6579 172.618 27.1182C172.023 27.5935 171.34 27.9458 170.609 28.1549C169.8 28.392 168.962 28.509 168.119 28.5022H159.929V35.8526H154.895L154.873 24.3005Z" fill="#E14E3D"/>
<path d="M191.325 35.8524L184.008 28.5021H177.604V24.3003H190.015C190.583 24.3182 191.146 24.1912 191.653 23.9309C191.87 23.8175 192.049 23.6431 192.171 23.4289C192.292 23.2146 192.349 22.9696 192.335 22.7233C192.35 22.4738 192.294 22.2251 192.173 22.007C192.052 21.7889 191.871 21.6107 191.653 21.4936C191.146 21.2333 190.583 21.1063 190.015 21.1242H177.615V16.9224H190.861C191.704 16.9156 192.543 17.0365 193.351 17.2808C194.076 17.4955 194.754 17.8472 195.349 18.3174C195.921 18.7761 196.392 19.3509 196.731 20.0048C197.103 20.7226 197.34 21.5042 197.429 22.3097V23.1148C197.396 23.8979 197.192 24.6639 196.833 25.3586C196.473 26.0533 195.967 26.6597 195.349 27.1346C194.126 28.0463 192.466 28.5021 190.37 28.5021L197.511 35.8524H191.325Z" fill="#E14E3D"/>
<path d="M228.055 24.1073V35.8524H223.021V16.9223H229.098L236.131 28.7502L243.163 16.9223H249.24V35.8524H244.206V24.1073L237.277 35.8524H234.978L228.055 24.1073Z" fill="#E14E3D"/>
<path d="M252.14 23.1149C252.125 22.2109 252.288 21.313 252.621 20.4736C252.92 19.7355 253.379 19.0743 253.964 18.5381C254.563 17.9984 255.265 17.5892 256.028 17.3361C256.884 17.0517 257.78 16.912 258.681 16.9225H265.365C266.267 16.9114 267.166 17.0511 268.024 17.3361C268.79 17.5915 269.498 18.0004 270.104 18.5381C270.694 19.0723 271.156 19.7338 271.458 20.4736C271.789 21.3134 271.95 22.2113 271.933 23.1149V29.6657C271.949 30.5727 271.787 31.4739 271.458 32.318C271.158 33.0618 270.695 33.7273 270.104 34.2645C269.498 34.8007 268.79 35.206 268.024 35.4555C267.164 35.7291 266.266 35.8631 265.365 35.8525H258.659C257.76 35.8627 256.864 35.7287 256.006 35.4555C255.243 35.2085 254.54 34.8027 253.942 34.2645C253.356 33.7251 252.897 33.06 252.599 32.318C252.268 31.4743 252.105 30.573 252.118 29.6657L252.14 23.1149ZM266.921 29.2466V23.5284C266.945 23.2021 266.903 22.8742 266.797 22.565C266.691 22.2558 266.523 21.9719 266.304 21.7308C266.064 21.5165 265.785 21.3525 265.482 21.2483C265.179 21.1442 264.859 21.102 264.54 21.1243H259.56C259.24 21.1019 258.919 21.1439 258.616 21.2481C258.312 21.3522 258.032 21.5163 257.791 21.7308C257.574 21.9729 257.408 22.2571 257.303 22.5662C257.198 22.8752 257.156 23.2026 257.18 23.5284V29.2466C257.155 29.5725 257.197 29.9 257.302 30.209C257.407 30.5181 257.574 30.8023 257.791 31.0442C258.032 31.2587 258.312 31.4228 258.616 31.5269C258.919 31.6311 259.24 31.6732 259.56 31.6508H264.54C264.859 31.673 265.179 31.6309 265.482 31.5267C265.785 31.4226 266.064 31.2585 266.304 31.0442C266.523 30.8035 266.691 30.5196 266.798 30.2103C266.904 29.901 266.946 29.5729 266.921 29.2466Z" fill="#E14E3D"/>
<path d="M25.7559 47.6644C25.2809 47.6644 24.8113 47.6644 24.3418 47.6148V38.5936L36.3541 30.1956V24.3341L19.5532 36.0186V46.7325C15.629 45.5327 12.1281 43.221 9.466 40.0718C6.80393 36.9226 5.09251 33.0682 4.53489 28.966C3.97727 24.8638 4.59689 20.6862 6.32016 16.929C8.04343 13.1719 10.798 9.99293 14.2569 7.7696L31.4345 18.3071L20.5907 25.7622V32.291L36.3759 21.3234V15.1144L15.3216 2.2334H15.2889C12.1156 3.66207 9.26131 5.72437 6.89787 8.29616C4.53443 10.8679 2.71068 13.896 1.53635 17.1982C0.362014 20.5004 -0.138615 24.0084 0.0646056 27.5111C0.267827 31.0138 1.17069 34.4388 2.71885 37.5799C4.26702 40.721 6.42849 43.5133 9.07316 45.7888C11.7178 48.0642 14.791 49.7758 18.1078 50.8204C21.4246 51.8651 24.9163 52.2212 28.373 51.8674C31.8296 51.5136 35.1796 50.4572 38.2214 48.7617L34.4648 45.7786C31.726 47.0201 28.7581 47.6628 25.7559 47.6644Z" fill="#0D3249"/>
<path d="M25.7559 7.67182e-06C23.6764 0.00198854 21.6048 0.25749 19.5859 0.760962L25.7504 4.37272C29.8469 4.36869 33.8586 5.55101 37.3099 7.77951C40.7612 10.008 43.5073 13.1892 45.2228 16.946C46.9382 20.7028 47.551 24.8775 46.9885 28.9753C46.4259 33.0731 44.7117 36.922 42.0489 40.0658L34.8415 34.3311L30.2933 37.5127L41.623 46.5118L41.6885 46.4456C45.9007 43.1046 48.9761 38.52 50.4864 33.3305C51.9967 28.141 51.8667 22.605 50.1145 17.4937C48.3623 12.3823 45.0752 7.95012 40.711 4.81447C36.3468 1.67882 31.1228 -0.00414644 25.7668 7.67182e-06H25.7559Z" fill="#E14E3D"/>
<path d="M13.8037 11.7231V15.9304L13.8419 17.5406L21.3769 22.1283L25.8433 19.0404L13.8037 11.7231Z" fill="#E14E3D"/>
</svg>
