<svg width="44" height="34" viewBox="0 0 44 34" fill="none" xmlns="http://www.w3.org/2000/svg">
<path d="M36.85 33.84H7.15C5.25808 33.8427 3.44245 33.0943 2.10185 31.7594C0.761256 30.4244 0.00529763 28.6119 0 26.72V14.92H3V26.72C3.00264 27.8119 3.43756 28.8583 4.20964 29.6304C4.98171 30.4025 6.02812 30.8374 7.12 30.84H36.82C37.3657 30.8466 37.9073 30.745 38.4135 30.541C38.9197 30.3371 39.3805 30.0348 39.7692 29.6517C40.1579 29.2686 40.4668 28.8123 40.678 28.3091C40.8893 27.8059 40.9987 27.2658 41 26.72V14.92H44V26.72C43.9947 28.6119 43.2387 30.4244 41.8981 31.7594C40.5575 33.0943 38.7419 33.8427 36.85 33.84ZM44 9.32002V7.32002C43.9947 5.4333 43.2429 3.62537 41.9088 2.29125C40.5747 0.957132 38.7667 0.205297 36.88 0.20002H7.15C5.26497 0.197313 3.45536 0.940152 2.1159 2.2665C0.776445 3.59284 0.0158386 5.39506 0 7.28002V9.28002L22 24.28L44 9.32002ZM3 7.28002C3.00264 6.18814 3.43756 5.14173 4.20964 4.36966C4.98171 3.59758 6.02812 3.16266 7.12 3.16002H36.82C37.3657 3.15341 37.9073 3.25503 38.4135 3.45899C38.9197 3.66296 39.3805 3.96523 39.7692 4.34833C40.1579 4.73144 40.4668 5.18778 40.678 5.69098C40.8893 6.19418 40.9987 6.73427 41 7.28002V7.73002L22 20.64L3 7.73002V7.28002Z" fill="#E14E3D"/>
</svg>
