<svg width="22" height="36" viewBox="0 0 22 36" fill="none" xmlns="http://www.w3.org/2000/svg">
<path d="M16.3302 2C17.2611 2 18.1538 2.3698 18.8121 3.02806C19.4704 3.68631 19.8402 4.57909 19.8402 5.51V30.51C19.8349 31.4374 19.4627 32.3251 18.8051 32.979C18.1474 33.633 17.2576 34 16.3302 34H5.67016C4.73925 34 3.84646 33.6302 3.18821 32.9719C2.52996 32.3137 2.16016 31.4209 2.16016 30.49V5.49C2.16544 4.56256 2.53758 3.67491 3.19526 3.02097C3.85294 2.36704 4.7427 1.99998 5.67016 2H16.3302ZM16.3302 1.1973e-10H5.67016C4.20881 1.19732e-10 2.80732 0.580516 1.774 1.61384C0.740673 2.64717 0.160156 4.04866 0.160156 5.51V30.51C0.165448 31.9679 0.748299 33.3642 1.78105 34.3932C2.8138 35.4222 4.21227 36 5.67016 36H16.3302C17.7915 36 19.193 35.4195 20.2263 34.3862C21.2596 33.3528 21.8402 31.9513 21.8402 30.49V5.49C21.8349 4.03212 21.252 2.63577 20.2193 1.60676C19.1865 0.57776 17.788 -9.60386e-06 16.3302 1.1973e-10V1.1973e-10ZM11.0002 26.83C10.6046 26.83 10.2179 26.9473 9.88902 27.1671C9.56012 27.3868 9.30377 27.6992 9.1524 28.0646C9.00102 28.4301 8.96142 28.8322 9.03859 29.2202C9.11576 29.6081 9.30624 29.9645 9.58594 30.2442C9.86565 30.5239 10.222 30.7144 10.61 30.7916C10.9979 30.8687 11.4001 30.8291 11.7655 30.6778C12.131 30.5264 12.4433 30.27 12.6631 29.9411C12.8829 29.6122 13.0002 29.2256 13.0002 28.83C13.0002 28.2996 12.7894 27.7909 12.4144 27.4158C12.0393 27.0407 11.5306 26.83 11.0002 26.83Z" fill="#E14E3D"/>
</svg>
