<svg width="34" height="46" viewBox="0 0 34 46" fill="none" xmlns="http://www.w3.org/2000/svg">
<path d="M16.9999 45.46L15.8899 44.22C15.2699 43.54 0.689941 27.22 0.689941 16.85C0.689941 12.5243 2.40831 8.37578 5.46703 5.31707C8.52575 2.25835 12.6743 0.539978 16.9999 0.539978C21.3256 0.539978 25.4741 2.25835 28.5329 5.31707C31.5916 8.37578 33.3099 12.5243 33.3099 16.85C33.3099 27.26 18.7299 43.54 18.1099 44.22L16.9999 45.46ZM16.9999 3.53998C13.4707 3.54263 10.0868 4.94578 7.59128 7.44131C5.09574 9.93685 3.69259 13.3208 3.68994 16.85C3.68994 24.57 13.6199 36.94 16.9999 40.93C20.3799 36.93 30.3099 24.57 30.3099 16.85C30.3073 13.3208 28.9041 9.93685 26.4086 7.44131C23.9131 4.94578 20.5292 3.54263 16.9999 3.53998ZM17.2499 24C15.8769 24.002 14.5342 23.5966 13.3916 22.8352C12.249 22.0739 11.3579 20.9907 10.8311 19.7227C10.3043 18.4548 10.1654 17.0591 10.4321 15.7122C10.6987 14.3653 11.3589 13.1278 12.3291 12.1562C13.2993 11.1846 14.5358 10.5227 15.8823 10.2541C17.2288 9.98548 18.6247 10.1223 19.8934 10.6473C21.1622 11.1723 22.2466 12.0618 23.0096 13.2033C23.7727 14.3448 24.1799 15.6869 24.1799 17.06C24.1799 18.8988 23.4501 20.6625 22.1508 21.9638C20.8515 23.265 19.0888 23.9973 17.2499 24ZM17.2499 13.13C16.4698 13.128 15.7067 13.3576 15.0572 13.7898C14.4078 14.222 13.9012 14.8372 13.6018 15.5576C13.3023 16.2779 13.2235 17.071 13.3752 17.8362C13.5269 18.6014 13.9023 19.3043 14.454 19.856C15.0056 20.4076 15.7085 20.783 16.4737 20.9347C17.239 21.0865 18.032 21.0076 18.7523 20.7081C19.4727 20.4087 20.0879 19.9021 20.5201 19.2527C20.9523 18.6032 21.1819 17.8401 21.1799 17.06C21.1694 16.0237 20.751 15.0333 20.0154 14.3033C19.2799 13.5733 18.2863 13.1626 17.2499 13.16V13.13Z" fill="#E14E3D"/>
</svg>
