<svg width="93" height="86" viewBox="0 0 93 86" fill="none" xmlns="http://www.w3.org/2000/svg">
<g clip-path="url(#clip0_281_3594)">
<path d="M46.5 4.95996C69.38 4.95996 88 19.48 88 37.33C88 55.18 69.38 69.7 46.5 69.7C42.9719 69.7218 39.4507 69.3867 35.99 68.7L34.42 68.3799L32.96 69.03C30.53 70.11 22.79 73.3999 16.2 76.2C17.69 71.7999 19.15 67.37 19.53 65.79L20.29 62.61L17.68 60.61C9.49999 54.44 5 46.18 5 37.36C5 19.51 23.61 4.98996 46.5 4.98996V4.95996ZM46.5 -0.0100403C20.81 -0.0100403 0 16.72 0 37.36C0 48.1 5.62997 57.79 14.66 64.61C13.9 67.78 7.82001 85.16 7.82001 85.16C7.82001 85.16 30.42 75.6 34.99 73.58C38.7784 74.3485 42.6345 74.7338 46.5 74.73C72.18 74.73 93 58 93 37.36C93 16.72 72.18 -0.0400391 46.5 -0.0400391V-0.0100403Z" fill="#0D3249"/>
<path d="M70.27 22.97H24.21V27.97H70.27V22.97Z" fill="#E14E3D"/>
<path d="M70.27 35.03H24.21V40.03H70.27V35.03Z" fill="#E14E3D"/>
<path d="M70.27 47.1001H24.21V52.1001H70.27V47.1001Z" fill="#E14E3D"/>
</g>
<defs>
<clipPath id="clip0_281_3594">
<rect width="93" height="85.18" fill="white"/>
</clipPath>
</defs>
</svg>
