<svg width="150" height="118" viewBox="0 0 150 118" fill="none" xmlns="http://www.w3.org/2000/svg">
<g clip-path="url(#clip0_281_3675)">
<path d="M124.565 -0.00305176H9.76089C7.20591 -0.000218654 4.75638 1.01466 2.94973 2.81891C1.14308 4.62317 0.12686 7.06946 0.124023 9.62106V88.9861C0.126929 91.5377 1.14317 93.9839 2.94981 95.7882C4.75644 97.5924 7.20593 98.6073 9.76089 98.6102H54.5933V115.348H39.9285V117.858H92.7218V115.348H79.733V98.6102H124.565C127.12 98.6072 129.57 97.5923 131.376 95.7881C133.183 93.9838 134.199 91.5376 134.202 88.9861V9.62106C134.199 7.06949 133.183 4.62325 131.376 2.819C129.57 1.01476 127.12 -0.00014126 124.565 -0.00305176ZM9.76089 2.50759H124.565C126.454 2.50976 128.264 3.25992 129.6 4.59348C130.935 5.92705 131.686 7.73512 131.688 9.62106V13.6669H2.63799V9.62106C2.6401 7.7351 3.39122 5.92698 4.72657 4.5934C6.06192 3.25982 7.87243 2.50969 9.76089 2.50759ZM131.688 16.1776V82.291H2.63799V16.1776H131.688ZM77.219 115.348H57.1073V98.6102H77.219V115.348ZM124.565 96.0996H9.76089C7.87245 96.0974 6.06198 95.3472 4.72665 94.0137C3.39131 92.6801 2.64017 90.872 2.63799 88.9861V84.8017H131.688V88.9861C131.686 90.872 130.935 92.68 129.6 94.0136C128.264 95.3471 126.454 96.0973 124.565 96.0996Z" fill="#2C3C4D"/>
<path d="M36.1578 32.0783C33.5741 32.0738 31.0409 32.7936 28.8466 34.1559C26.6522 35.5182 24.8848 37.4683 23.7455 39.7842C22.6061 42.1001 22.1405 44.6889 22.4017 47.2561C22.6628 49.8232 23.6403 52.2656 25.2228 54.3054L17.8555 61.6633L19.6329 63.4384L26.9352 56.1454C28.6029 57.6409 30.6098 58.7088 32.7829 59.257C34.9559 59.8052 37.2299 59.8172 39.4087 59.2921C41.5874 58.7669 43.6056 57.7204 45.2891 56.2426C46.9726 54.7649 48.2708 52.9004 49.0719 50.8099C49.873 48.7194 50.1529 46.4657 49.8874 44.2431C49.6219 42.0205 48.819 39.8957 47.5479 38.0521C46.2769 36.2085 44.5758 34.7013 42.5915 33.6606C40.6072 32.6198 38.3992 32.0768 36.1578 32.0783ZM36.1578 57.1846C33.9204 57.1846 31.7331 56.522 29.8727 55.2806C28.0124 54.0392 26.5624 52.2747 25.7061 50.2103C24.8499 48.1459 24.6258 45.8742 25.0624 43.6827C25.4989 41.4911 26.5763 39.478 28.1584 37.898C29.7406 36.3179 31.7563 35.2419 33.9508 34.806C36.1453 34.3701 38.4199 34.5938 40.4871 35.4489C42.5542 36.304 44.321 37.7521 45.5641 39.61C46.8072 41.4679 47.4707 43.6523 47.4707 45.8868C47.4673 48.8821 46.2743 51.7538 44.1535 53.8718C42.0326 55.9898 39.1571 57.1812 36.1578 57.1846Z" fill="#E14E3D"/>
<path d="M75.9624 71.8301H59.2026V58.8306H75.9624V71.8301ZM61.7166 69.3194H73.4484V61.3413H61.7166V69.3194Z" fill="#E14E3D"/>
<path d="M75.9624 55.734H59.2026V42.7346H75.9624V55.734ZM61.7166 53.2234H73.4484V45.2452H61.7166V53.2234Z" fill="#E14E3D"/>
<path d="M75.9624 39.638H59.2026V26.6385H75.9624V39.638ZM61.7166 37.1273H73.4484V29.1492H61.7166V37.1273Z" fill="#E14E3D"/>
<path d="M96.0737 71.8301H79.314V58.8306H96.0737V71.8301ZM81.8279 69.3194H93.5598V61.3413H81.8279V69.3194Z" fill="#E14E3D"/>
<path d="M96.0737 55.734H79.314V42.7346H96.0737V55.734ZM81.8279 53.2234H93.5598V45.2452H81.8279V53.2234Z" fill="#E14E3D"/>
<path d="M96.0737 39.638H79.314V26.6385H96.0737V39.638ZM81.8279 37.1273H93.5598V29.1492H81.8279V37.1273Z" fill="#E14E3D"/>
<path d="M116.186 71.8301H99.4258V58.8306H116.186V71.8301ZM101.94 69.3194H113.672V61.3413H101.94V69.3194Z" fill="#E14E3D"/>
<path d="M116.186 55.734H99.4258V42.7346H116.186V55.734ZM101.94 53.2234H113.672V45.2453H101.94V53.2234Z" fill="#E14E3D"/>
<path d="M116.186 39.638H99.4258V26.6385H116.186V39.638ZM101.94 37.1273H113.672V29.1492H101.94V37.1273Z" fill="#E14E3D"/>
</g>
<defs>
<clipPath id="clip0_281_3675">
<rect width="150" height="118" fill="white"/>
</clipPath>
</defs>
</svg>
