<svg width="150" height="118" viewBox="0 0 150 118" fill="none" xmlns="http://www.w3.org/2000/svg">
<path d="M118.967 40.026H83.352V37.5154H118.967V40.026ZM118.967 55.0898H83.352V57.6005H118.967V55.0898ZM118.967 72.6639H83.352V75.1745H118.967V72.6639ZM134.469 10.0368V89.4015C134.466 91.953 133.45 94.3992 131.643 96.2035C129.837 98.0077 127.387 99.0226 124.832 99.0256H43.5475V96.5149H124.832C126.721 96.5127 128.531 95.7625 129.867 94.429C131.202 93.0954 131.953 91.2874 131.955 89.4015V17.4303H2.90508V89.4015C2.90726 91.2874 3.6584 93.0955 4.99374 94.4291C6.32907 95.7626 8.13954 96.5128 10.028 96.5149H31.7946L28.0318 92.7572L31.2143 89.579L28.0318 86.4007L31.2143 83.2225L27.6763 79.6892L27.7183 68.6787C24.6915 67.157 22.1447 64.8296 20.3589 61.9534C18.5732 59.0772 17.618 55.7641 17.5989 52.3799C17.5845 47.5835 19.3708 42.956 22.6055 39.4105C25.8401 35.8651 30.288 33.6594 35.0714 33.2286C37.7129 33.0003 40.3731 33.3227 42.8832 34.1755C45.3933 35.0283 47.6986 36.3928 49.6526 38.1825C51.6067 39.9722 53.167 42.1479 54.2345 44.5717C55.3019 46.9955 55.8533 49.6144 55.8536 52.2623C55.8536 59.8218 51.2517 65.9447 43.4961 68.786L43.5477 109.487L35.9879 116.594L28.8274 109.443C28.2182 108.761 27.8798 107.88 27.8759 106.966C27.8527 106.494 27.9433 106.024 28.1399 105.594C28.3364 105.165 28.6333 104.789 29.0056 104.498L30.4187 103.086L28.0318 100.703L29.7112 99.0256H10.028C7.47302 99.0227 5.02353 98.0078 3.2169 96.2035C1.41026 94.3993 0.394019 91.953 0.391113 89.4015V10.0368C0.39395 7.48523 1.41017 5.03894 3.21682 3.23469C5.02347 1.43043 7.473 0.415553 10.028 0.41272H124.832C127.387 0.415621 129.837 1.43052 131.644 3.23477C133.45 5.03902 134.466 7.48527 134.469 10.0369V10.0368ZM31.2135 92.758L35.1915 96.7308L31.2135 100.704L33.6003 103.087L30.596 106.088C30.1251 106.558 30.1251 106.558 30.1251 106.968C30.1242 107.317 30.249 107.654 30.4767 107.918L35.9872 113.417L35.9863 113.416L41.0338 108.65L41.2059 67.1725C49.0694 64.878 53.602 59.401 53.6028 52.2615C53.5991 49.9288 53.1123 47.6221 52.1731 45.4862C51.2338 43.3504 49.8624 41.4316 48.1449 39.8506C46.424 38.2601 44.3879 37.0482 42.1683 36.2934C39.9487 35.5385 37.5952 35.2575 35.26 35.4685C31.04 35.8495 27.1162 37.7964 24.2631 40.9249C21.4099 44.0535 19.8347 48.1364 19.8481 52.368C19.8885 58.8641 23.6931 64.4927 29.9827 67.2828L29.9349 78.7681L34.3959 83.2233L31.2135 86.4015L34.3959 89.5797L31.2135 92.758ZM131.955 14.9196V10.0369C131.953 8.15092 131.202 6.34284 129.867 5.00927C128.531 3.67571 126.721 2.92556 124.832 2.92338H10.028C8.13952 2.92549 6.32901 3.67562 4.99366 5.0092C3.65831 6.34278 2.90719 8.15089 2.90508 10.0369V14.9196H131.955ZM36.7271 52.2623C35.3918 52.2624 34.0865 51.8671 32.9762 51.1264C31.866 50.3856 31.0006 49.3327 30.4895 48.1007C29.9785 46.8688 29.8447 45.5132 30.1051 44.2053C30.3656 42.8974 31.0085 41.6961 31.9526 40.7531C34.2969 38.412 38.0649 38.0034 41.3113 40.3332C41.5456 40.5021 41.7513 40.7075 41.9204 40.9416C44.2533 44.1836 43.8442 47.9467 41.5 50.2878C40.8746 50.9157 40.1308 51.4135 39.3115 51.7524C38.4923 52.0914 37.6138 52.2647 36.7271 52.2623ZM33.4848 48.8427C34.3793 49.6259 35.5355 50.0456 36.7248 50.0189C37.9142 49.9923 39.0503 49.5212 39.9088 48.6987C40.7528 47.8558 41.227 46.7126 41.227 45.5205C41.227 44.3284 40.7528 43.1852 39.9088 42.3422C39.0648 41.4993 37.92 41.0258 36.7263 41.0258C35.5327 41.0258 34.3879 41.4993 33.5439 42.3422C32.7209 43.1985 32.249 44.3316 32.2213 45.5182C32.1936 46.7048 32.6121 47.8586 33.3943 48.7522C33.4205 48.7861 33.4509 48.8164 33.4848 48.8427V48.8427Z" fill="#2C3C4D"/>
<path d="M69.9919 44.7784L64.0273 38.8213L65.8048 37.0462L69.8961 41.1317L76.5514 33.7465L78.4204 35.426L69.9919 44.7784ZM78.4205 53.0005L76.5514 51.321L69.8961 58.7058L65.8048 54.6207L64.0273 56.3958L69.9919 62.3524L78.4205 53.0005ZM78.4205 69.738L76.5514 68.0578L69.8961 75.4434L65.8048 71.3579L64.0273 73.133L69.9919 79.09L78.4205 69.738Z" fill="#E14E3D"/>
</svg>
