<svg width="180" height="32" viewBox="0 0 180 32" fill="none" xmlns="http://www.w3.org/2000/svg">
<path d="M40.455 0L24.68 12.14C23.0575 6.07 17.8 1.615 11.3275 1.615H0V29.5325H11.3275C17.8025 29.5325 23.465 25.0825 24.6775 19.0125L40.4525 31.1475L56.235 19.0125V29.53H74.035V23.8675H62.305V1.6175H55.83V12.135L40.86 24.275L37.6225 21.45L44.9075 15.78L52.5925 9.715L48.1425 6.0775L33.175 17.8075L29.9375 14.975L44.9075 3.6475L40.455 0.0075V0ZM6.07 7.28H10.9225C11.935 7.28 12.9225 7.5075 13.8325 7.925C14.745 8.3425 15.5775 8.95 16.285 9.7075C16.9925 10.465 17.575 11.3725 17.98 12.3975C18.385 13.4225 18.61 14.5625 18.61 15.7775C18.61 16.89 18.405 17.975 18.035 18.9775C17.6697 19.9723 17.1276 20.8929 16.435 21.695C15.7585 22.4783 14.9301 23.1162 14 23.57C13.07 24.02 12.0375 24.2675 10.925 24.2675H6.0675L6.07 7.28ZM94.2625 23.8675V29.5325H76.4625V1.6175H82.935V23.8675H94.2625Z" fill="#007DB8"/>
<path d="M169.218 30.045C174.693 30.045 179.143 27.3076 180 21.3176L179.658 20.975H178.118L177.775 21.3176C176.918 25.5951 174.18 27.9925 169.39 27.9925C163.4 27.9925 159.12 23.5425 159.12 15.6675C159.12 7.79255 163.57 3.34754 169.388 3.34754C174.18 3.34754 176.92 5.74505 177.775 9.68005L178.118 10.0225H179.658L180 9.68005C179.145 4.20504 174.865 1.29504 169.218 1.29504C162.543 1.29504 156.553 6.08754 156.553 15.5C156.553 25.255 162.543 30.045 169.218 30.045ZM151.763 29.1901V2.15004L151.42 1.80754H148.68L148.34 2.15004L138.07 26.2801H137.728L127.118 2.15004L126.775 1.80754H124.038L123.695 2.15004V29.1901L124.038 29.5325H125.578L125.92 29.1901V6.25754H126.263L136.188 29.1901L136.53 29.5325H138.585L138.928 29.1901L148.853 6.25754H149.365V29.1901L149.708 29.5325H151.248L151.763 29.1901ZM118.393 29.1901V27.99L118.05 27.6501H103.333L102.99 27.3076V17.04L103.333 16.6975H117.193L117.535 16.355V14.985L117.193 14.6425H103.333L102.99 14.3V4.20254L103.333 3.86254H118.05L118.393 3.52004V2.15004L118.05 1.80754H100.935L100.593 2.15004V29.1901L100.935 29.5325H118.05L118.393 29.1901Z" fill="#808080"/>
</svg>
