<svg width="200" height="84" viewBox="0 0 200 84" fill="none" xmlns="http://www.w3.org/2000/svg">
<path d="M4.2781 52.2574H0V32.5583H4.2781V40.3426H11.9211V32.5583H16.1992V52.2574H11.9211V44.0936H4.2781V52.2574Z" fill="black"/>
<path d="M22.6776 43.6203H27.7731C27.6781 42.1711 27.0814 41.1616 25.4139 41.1616C24.1553 41.1616 23.0547 41.6985 22.6776 43.6203ZM25.9167 52.5719C21.5766 52.5719 18.6206 49.8294 18.6206 45.324C18.6206 40.9415 21.5139 37.9162 25.3513 37.9162C29.5345 37.9162 31.6104 40.7214 31.6104 44.9136V46.4904H22.6776C23.182 48.6636 24.8798 49.2302 26.5786 49.2302C28.0563 49.2302 29.125 48.9161 30.4457 48.0953H30.6043V51.3418C29.4719 52.1631 27.867 52.5719 25.9167 52.5719Z" fill="black"/>
<path d="M42.7759 43.9992L40.5737 52.2566H36.8313L32.5537 38.3877V38.2303H36.643L38.9698 46.5201L41.172 38.2303H44.5061L46.7395 46.5201L49.0987 38.2303H53.031V38.3877L48.7529 52.2566H45.0094L42.7759 43.9992Z" fill="black"/>
<path d="M59.9798 52.5726C56.5832 52.5726 55.1984 51.2176 55.1984 48.0349V32.5599H59.3503V47.751C59.3503 48.7281 59.7274 49.0747 60.5453 49.0747C60.8285 49.0747 61.238 48.9806 61.4888 48.8855H61.5525V52.3212C61.2066 52.4461 60.6089 52.5726 59.9798 52.5726Z" fill="black"/>
<path d="M66.7737 43.6203H71.8692C71.7743 42.1711 71.1781 41.1616 69.51 41.1616C68.253 41.1616 67.1508 41.6985 66.7737 43.6203ZM70.0134 52.5719C65.6726 52.5719 62.7167 49.8294 62.7167 45.324C62.7167 40.9415 65.6106 37.9162 69.4479 37.9162C73.6306 37.9162 75.7066 40.7214 75.7066 44.9136V46.4904H66.7737C67.2771 48.6636 68.9759 49.2302 70.6732 49.2302C72.1529 49.2302 73.2211 48.9161 74.5434 48.0953H74.7004V51.3418C73.5685 52.1631 71.9641 52.5719 70.0134 52.5719Z" fill="black"/>
<path d="M92.7535 38.2301H95.8356V41.5708H92.7535V47.2759C92.7535 48.5055 93.2255 49.0738 94.4836 49.0738C94.8294 49.0738 95.2702 49.0414 95.7422 48.8835H95.8356V52.1613C95.3015 52.3516 94.4836 52.5707 93.2892 52.5707C89.9223 52.5707 88.6016 51.0264 88.6016 47.4646V41.5708H83.2865V47.2759C83.2865 48.5055 83.7586 49.0738 85.0151 49.0738C85.3625 49.0738 85.8032 49.0414 86.2748 48.8835H86.3686V52.1613C85.8345 52.3516 85.0151 52.5707 83.8222 52.5707C80.4553 52.5707 79.1346 51.0264 79.1346 47.4646V41.5708H76.9951V38.2301H79.1346V34.3851H83.2865V38.2301H88.6016V34.3851H92.7535V38.2301Z" fill="black"/>
<path d="M109.826 42.2346C111.998 42.2346 113.034 41.006 113.034 39.2406C113.034 37.4114 111.998 36.1828 109.826 36.1828H107.121V42.2346H109.826ZM117.375 39.2406C117.375 43.5285 114.513 45.8591 110.172 45.8591H107.121V52.2574H102.845V32.5583H110.172C114.513 32.5583 117.375 34.8905 117.375 39.2406Z" fill="black"/>
<path d="M126.494 47.8438V46.6467C125.865 46.3016 125.049 46.1751 124.199 46.1751C122.847 46.1751 122.029 46.678 122.029 47.8125C122.029 48.9798 122.847 49.4844 124.072 49.4844C125.236 49.4844 126.118 48.8847 126.494 47.8438ZM126.62 50.8702C125.708 51.9738 124.357 52.5097 122.908 52.5097C120.173 52.5097 117.938 50.8405 117.938 47.8752C117.938 45.1343 120.173 43.306 123.38 43.306C124.386 43.306 125.426 43.4639 126.494 43.7776V43.5277C126.494 42.0138 125.646 41.3535 123.414 41.3535C121.997 41.3535 120.645 41.7607 119.48 42.4241H119.324V39.0825C120.393 38.453 122.281 37.9162 124.135 37.9162C128.351 37.9162 130.646 39.933 130.646 43.4639V52.2567H126.62V50.8702Z" fill="black"/>
<path d="M132.755 45.2602C132.755 40.7523 135.933 37.9162 140.085 37.9162C141.563 37.9162 142.946 38.2314 143.985 38.9873V42.5491H143.826C142.913 41.8559 141.845 41.4455 140.619 41.4455C138.544 41.4455 136.97 42.8659 136.97 45.2602C136.97 47.6551 138.544 49.0426 140.619 49.0426C141.845 49.0426 142.913 48.6322 143.826 47.9374H143.985V51.4997C142.946 52.2567 141.563 52.5719 140.085 52.5719C135.933 52.5719 132.755 49.7682 132.755 45.2602Z" fill="black"/>
<path d="M150.743 45.8915V52.2574H146.593V32.5583H150.743V43.7784L154.928 38.2311H159.645V38.3885L154.614 44.7555L159.645 52.0995V52.2574H154.895L150.743 45.8915Z" fill="black"/>
<path d="M168.956 47.8438V46.6467C168.328 46.3016 167.509 46.1751 166.66 46.1751C165.308 46.1751 164.491 46.678 164.491 47.8125C164.491 48.9798 165.308 49.4844 166.533 49.4844C167.699 49.4844 168.579 48.8847 168.956 47.8438ZM169.082 50.8702C168.17 51.9738 166.816 52.5097 165.371 52.5097C162.633 52.5097 160.401 50.8405 160.401 47.8752C160.401 45.1343 162.633 43.306 165.844 43.306C166.85 43.306 167.886 43.4639 168.956 43.7776V43.5277C168.956 42.0138 168.107 41.3535 165.874 41.3535C164.46 41.3535 163.105 41.7607 161.942 42.4241H161.785V39.0825C162.854 38.453 164.742 37.9162 166.597 37.9162C170.814 37.9162 173.109 39.933 173.109 43.4639V52.2567H169.082V50.8702Z" fill="black"/>
<path d="M180.09 40.5005C180.845 38.9551 181.947 38.0732 183.488 38.0732C184.054 38.0732 184.619 38.1997 184.837 38.3262V42.2973H184.681C184.21 42.107 183.644 41.9821 182.858 41.9821C181.568 41.9821 180.562 42.7385 180.215 44.1877V52.2574H176.065V38.2311H180.09V40.5005Z" fill="black"/>
<path d="M195.848 47.498V42.99C195.157 41.9821 194.245 41.5414 193.205 41.5414C191.383 41.5414 190.156 42.8666 190.156 45.261C190.156 47.6559 191.383 48.9482 193.205 48.9482C194.245 48.9482 195.157 48.5064 195.848 47.498ZM195.973 50.8088C195.093 51.9432 193.709 52.5726 191.822 52.5726C188.236 52.5726 185.94 49.2958 185.94 45.261C185.94 41.2261 188.236 37.9169 191.822 37.9169C193.646 37.9169 194.967 38.4852 195.848 39.5245V32.5599H200V52.2574H195.973V50.8088Z" fill="black"/>
<path d="M0 58.6906H12.1411V61.0855H2.73628V67.1043H11.2596V69.438H2.73628V75.9938H12.1411V78.3886H0V58.6906Z" fill="black"/>
<path d="M22.1729 64.2376C25.2863 64.2376 27.0164 66.287 27.0164 69.6573V78.3894H24.4058V69.7216C24.4058 67.9248 23.4936 66.6325 21.5125 66.6325C19.8773 66.6325 18.493 67.6733 18.021 69.1533V78.3894H15.4109V64.522H18.021V66.5384C18.8383 65.246 20.2231 64.2376 22.1729 64.2376Z" fill="black"/>
<path d="M34.0325 64.5207H37.5861V66.7587H34.0325V74.2277C34.0325 75.8029 34.8498 76.3398 36.328 76.3398C36.7359 76.3398 37.1766 76.2776 37.4911 76.151H37.5861V78.3881C37.2095 78.5454 36.6738 78.6719 35.9509 78.6719C32.7102 78.6719 31.4224 77.1893 31.4224 74.4808V66.7587H29.032V64.5207H31.4224V60.8351H34.0325V64.5207Z" fill="black"/>
<path d="M41.9575 70.0991H48.8457C48.7523 68.0513 47.7446 66.4762 45.6066 66.4762C43.6256 66.4762 42.3346 67.9572 41.9575 70.0991ZM46.0786 78.6733C42.0201 78.6733 39.2525 75.9621 39.2525 71.613C39.2525 67.263 41.8318 64.2376 45.5753 64.2376C49.3814 64.2376 51.3624 66.9802 51.3624 71.0453V72.2441H41.8626C42.1463 75.0488 43.9401 76.4039 46.4239 76.4039C47.9657 76.4039 49.0653 76.0573 50.2926 75.1424H50.3875V77.4447C49.2551 78.3267 47.7759 78.6733 46.0786 78.6733Z" fill="black"/>
<path d="M57.0553 66.6643C57.6536 65.1833 58.9753 64.3008 60.4832 64.3008C61.0825 64.3008 61.6166 64.3949 61.8362 64.5214V67.1045H61.7429C61.3647 66.9174 60.7357 66.8222 60.1061 66.8222C58.6921 66.8222 57.496 67.7663 57.0553 69.3431V78.3888H54.4452V64.5214H57.0553V66.6643Z" fill="black"/>
<path d="M70.2632 76.3087C72.8425 76.3087 74.353 74.2605 74.353 71.4541C74.353 68.6818 72.8425 66.6027 70.2632 66.6027C68.8481 66.6027 67.5269 67.4532 66.8358 68.8068V74.1355C67.5269 75.489 68.8476 76.3087 70.2632 76.3087ZM70.7039 64.2376C74.8235 64.2376 77.0257 67.6111 77.0257 71.4541C77.0257 75.3018 74.8235 78.6733 70.7039 78.6733C69.0051 78.6733 67.5582 77.7914 66.8358 76.844V83.7166H64.2241V64.522H66.8358V66.0966C67.5582 65.1195 69.0051 64.2376 70.7039 64.2376Z" fill="black"/>
<path d="M82.7204 66.6643C83.3172 65.1833 84.6394 64.3008 86.1484 64.3008C86.7461 64.3008 87.2808 64.3949 87.5004 64.5214V67.1045H87.4065C87.0299 66.9174 86.4003 66.8222 85.7713 66.8222C84.3557 66.8222 83.1612 67.7663 82.7204 69.3431V78.3888H80.1104V64.5214H82.7204V66.6643Z" fill="black"/>
<path d="M91.2749 58.9109C92.1871 58.9109 92.9414 59.6355 92.9414 60.5503C92.9414 61.4647 92.1871 62.1892 91.2749 62.1892C90.395 62.1892 89.6068 61.4647 89.6068 60.5503C89.6073 59.6355 90.395 58.9109 91.2749 58.9109Z" fill="black"/>
<path d="M89.9847 78.3891H92.5963V64.5217H89.9847V78.3891Z" fill="black"/>
<path d="M101.906 70.2894C103.887 70.9188 106.087 71.738 106.087 74.3854C106.087 77.2231 103.761 78.6733 100.774 78.6733C98.9489 78.6733 97.1249 78.2315 96.0864 77.4123V74.9223H96.2126C97.3773 75.9935 99.1059 76.4661 100.741 76.4661C102.219 76.4661 103.541 75.8983 103.541 74.7006C103.541 73.4721 102.441 73.1882 100.27 72.4636C98.3193 71.8332 96.15 71.1076 96.15 68.4925C96.15 65.8128 98.3506 64.2376 101.151 64.2376C102.786 64.2376 104.233 64.5842 105.396 65.3726V67.895H105.302C104.172 66.9802 102.848 66.4432 101.213 66.4432C99.5779 66.4432 98.6651 67.1694 98.6651 68.1465C98.6651 69.2501 99.6713 69.5637 101.906 70.2894Z" fill="black"/>
<path d="M111.059 70.0991H117.946C117.852 68.0513 116.847 66.4762 114.706 66.4762C112.725 66.4762 111.436 67.9572 111.059 70.0991ZM115.178 78.6733C111.122 78.6733 108.354 75.9621 108.354 71.613C108.354 67.263 110.933 64.2376 114.676 64.2376C118.483 64.2376 120.463 66.9802 120.463 71.0453V72.2441H110.965C111.248 75.0488 113.04 76.4039 115.524 76.4039C117.067 76.4039 118.167 76.0573 119.393 75.1424H119.488V77.4447C118.357 78.3267 116.877 78.6733 115.178 78.6733Z" fill="black"/>
<path d="M64.1614 15.4138H4.27759V4.2868H64.1614V15.4138ZM68.439 0H0V19.6991H68.439V0Z" fill="#00B388"/>
</svg>
