<svg width="160" height="24" viewBox="0 0 160 24" fill="none" xmlns="http://www.w3.org/2000/svg">
<path d="M0 22.4812V0.670552H5.92L15.8907 14.0687V0.670552H21.8115V22.4804H15.8907L5.9208 8.98492V22.4804L0 22.4812ZM28.8217 22.4812V0.670552H43.3102V5.49949H34.7417V9.161H42.999V13.9128H34.7417V17.6514H43.311V22.4812H28.8217ZM59.2016 22.4812H53.1256V5.5003H47.3608V0.669748H64.9656V5.49949H59.2008L59.2016 22.4812ZM79.3769 10.3292H91.0609C91.0609 18.6886 86.6653 23.126 79.5256 23.126C72.6151 23.126 67.4275 18.9049 67.4275 11.8255C67.4275 4.51859 72.1335 0 79.3889 0C87.5924 0 89.8332 6.10733 89.8332 6.10733L84.2131 8.34411C84.2131 8.34411 82.8961 4.9013 79.1944 4.9013C76.4848 4.9013 73.6129 6.94673 73.6129 11.7282C73.6129 15.7322 76.1809 18.4965 79.4862 18.4965C82.4426 18.4965 83.9003 16.808 84.1286 14.6918H79.3769V10.3292ZM122.298 0.67216L114.314 22.4836H120.429L121.791 18.433H129.698L131.062 22.4836H137.215L129.153 0.67216H122.298ZM125.725 6.31959L128.335 14.1483H123.174L125.725 6.31959ZM140.838 0.67216V22.4836H146.758V14.0703H147.225L152.678 22.4836H160L153.126 13.5156C155.5 13.1417 158.101 11.3278 158.101 7.42914C158.101 3.6012 155.689 0.67216 149.815 0.67216H140.838ZM146.758 5.03477H148.315C151.382 5.03477 152.133 6.15236 152.133 7.7604C152.133 9.69648 150.894 10.4876 148.315 10.4876H146.758V5.03477ZM96.2806 22.4812V0.670552H110.769V5.49949H102.201V9.161H110.458V13.9128H102.201V17.6514H110.769V22.4812H96.2806Z" fill="#6B0E89"/>
</svg>
